<?xml version="1.0" encoding="utf-8"?>
<!-- Uploaded to: SVG Repo, www.svgrepo.com, Generator: SVG Repo Mixer Tools -->
<svg fill="#000000" width="800px" height="800px" viewBox="-6.5 0 32 32" version="1.1" xmlns="http://www.w3.org/2000/svg">
<title>dribbble</title>
<path d="M9.6 6.4c-5.28 0-9.6 4.32-9.6 9.6s4.32 9.6 9.6 9.6c5.28 0 9.6-4.32 9.6-9.6s-4.32-9.6-9.6-9.6zM16 11.4c0.88 1.2 1.4 2.68 1.48 4.28-1.84-0.48-3.52-0.52-5.080-0.2-0.2-0.48-0.44-0.96-0.64-1.4 1.48-0.64 2.92-1.52 4.24-2.68zM14.88 10.12c-1.2 1.080-2.56 1.84-3.92 2.4-1.080-1.92-2.12-3.4-2.84-4.32 0.48-0.080 0.96-0.16 1.48-0.16 2.040 0.040 3.88 0.84 5.28 2.080zM6.4 8.8c0.6 0.72 1.76 2.24 2.96 4.36-3.040 0.92-5.96 0.96-7.4 0.88 0.6-2.36 2.24-4.28 4.44-5.24zM1.68 16c0-0.080 0-0.2 0-0.28 0.36 0.040 0.8 0.040 1.32 0.040 1.76 0 4.4-0.2 7.12-1.080 0.2 0.4 0.4 0.8 0.6 1.24-3.48 1.24-5.96 3.92-7.040 5.28-1.24-1.4-2-3.2-2-5.2zM4.92 22.36c0.6-0.76 1.76-2.12 3.4-3.28 1-0.72 2.040-1.24 3.080-1.6 0.64 1.72 1.2 3.68 1.48 5.72-1 0.44-2.080 0.72-3.24 0.72-1.8 0-3.4-0.6-4.72-1.56zM14.4 22.24c-0.32-1.88-0.8-3.64-1.36-5.2 1.44-0.24 2.88-0.12 4.36 0.32-0.36 2-1.44 3.72-3 4.88z"></path>
</svg>